<svg width="29" height="29" viewBox="0 0 29 29" fill="none" xmlns="http://www.w3.org/2000/svg">
<path d="M7.85392 8.45826C9.61972 6.69246 11.592 5.33954 12.9259 4.52015C13.8982 3.92297 15.1013 3.92297 16.0736 4.52016C17.4076 5.33954 19.3798 6.69246 21.1456 8.45826C24.974 12.2867 24.7706 14.4999 24.7706 18.1249C24.7706 19.8285 24.6372 21.2651 24.4957 22.3096C24.3469 23.4085 23.3885 24.1666 22.2796 24.1666H20.5414C19.2067 24.1666 18.1248 23.0846 18.1248 21.7499V19.3333C18.1248 18.3719 17.7428 17.4498 17.063 16.77C16.3832 16.0902 15.4612 15.7083 14.4998 15.7083C13.5384 15.7083 12.6163 16.0902 11.9365 16.77C11.2567 17.4498 10.8748 18.3719 10.8748 19.3333V21.7499C10.8748 23.0846 9.79278 24.1666 8.45809 24.1666H6.71997C5.61104 24.1666 4.65263 23.4085 4.5038 22.3096C4.36235 21.2651 4.22893 19.8285 4.22893 18.1249C4.22893 14.4999 4.02545 12.2867 7.85392 8.45826Z" stroke="black" stroke-width="2" stroke-linecap="round" stroke-linejoin="round"/>
</svg>
