<svg width="8" height="16" viewBox="0 0 8 16" fill="none" xmlns="http://www.w3.org/2000/svg">
<path d="M4.42195 3.54C3.72862 3.16667 3.10195 2.67333 2.54195 2.06C2.55529 1.84667 2.64195 1.60667 2.80195 1.34C2.97529 1.06 3.17529 0.806666 3.40195 0.58C3.64195 0.34 3.86862 0.193333 4.08195 0.139999C4.29529 0.139999 4.53529 0.226666 4.80195 0.4C5.06862 0.559999 5.31529 0.759999 5.54195 0.999999C5.76862 1.22667 5.90195 1.44667 5.94195 1.66C5.92862 1.88667 5.83529 2.14 5.66195 2.42C5.48862 2.68667 5.28862 2.92667 5.06195 3.14C4.83529 3.34 4.62195 3.47333 4.42195 3.54ZM6.62195 12.32C6.71529 12.48 6.82862 12.7267 6.96195 13.06C7.09529 13.38 7.17529 13.6933 7.20195 14L4.50195 15.32C3.48862 14.8533 2.79529 14.2533 2.42195 13.52L2.84195 7.24L1.38195 7.68C1.28862 7.52 1.17529 7.28 1.04195 6.96C0.90862 6.62667 0.82862 6.30667 0.801953 6L3.50195 4.68C3.63529 4.69333 3.82862 4.76667 4.08195 4.9C4.33529 5.03333 4.58195 5.18 4.82195 5.34C5.07529 5.5 5.26862 5.63333 5.40195 5.74L4.84195 10.14V12.86L6.62195 12.32Z" fill="#FFB72B"/>
</svg>
